<mxfile host="Electron" agent="Mozilla/5.0 (Windows NT 10.0; Win64; x64) AppleWebKit/537.36 (KHTML, like Gecko) draw.io/27.0.9 Chrome/134.0.6998.205 Electron/35.4.0 Safari/537.36" version="27.0.9">
  <diagram name="Page-1" id="w30ScwnE7pAGVBI8K6dQ">
    <mxGraphModel dx="2316" dy="894" grid="1" gridSize="10" guides="1" tooltips="1" connect="1" arrows="1" fold="1" page="1" pageScale="1" pageWidth="827" pageHeight="1169" math="0" shadow="0">
      <root>
        <mxCell id="0" />
        <mxCell id="1" parent="0" />
        <mxCell id="SBfyBQDvpP1G_s4xRSZi-1" value="&lt;div&gt;&lt;br&gt;&lt;/div&gt;&lt;div&gt;&lt;br&gt;&lt;/div&gt;Usuário (Navegador)" style="shape=actor;whiteSpace=wrap;html=1;fontFamily=Helvetica;fontSize=12;" parent="1" vertex="1">
          <mxGeometry x="-40" y="450" width="100" height="120" as="geometry" />
        </mxCell>
        <mxCell id="SBfyBQDvpP1G_s4xRSZi-2" value="Frontend&lt;br&gt;(HTML, CSS, JS)" style="rounded=1;whiteSpace=wrap;html=1;fillColor=#dae8fc;strokeColor=#6c8ebf;fontFamily=Helvetica;fontSize=12;" parent="1" vertex="1">
          <mxGeometry x="180" y="480" width="120" height="60" as="geometry" />
        </mxCell>
        <mxCell id="SBfyBQDvpP1G_s4xRSZi-3" value="&lt;b&gt;main.py&lt;/b&gt;&lt;br&gt;(Controller / Rotas Flask)" style="rounded=1;whiteSpace=wrap;html=1;fillColor=#d5e8d4;strokeColor=#82b366;fontFamily=Helvetica;fontSize=12;" parent="1" vertex="1">
          <mxGeometry x="360" y="480" width="140" height="60" as="geometry" />
        </mxCell>
        <mxCell id="SBfyBQDvpP1G_s4xRSZi-4" value="&lt;b&gt;chat_service.py&lt;/b&gt;&lt;br&gt;(Lógica de Negócio)" style="rounded=1;whiteSpace=wrap;html=1;fillColor=#d5e8d4;strokeColor=#82b366;fontFamily=Helvetica;fontSize=12;" parent="1" vertex="1">
          <mxGeometry x="560" y="480" width="140" height="60" as="geometry" />
        </mxCell>
        <mxCell id="SBfyBQDvpP1G_s4xRSZi-5" value="API Externa&lt;br&gt;(Google Gemini)" style="shape=cloud;whiteSpace=wrap;html=1;fillColor=#f8cecc;strokeColor=#b85450;fontFamily=Helvetica;fontSize=12;" parent="1" vertex="1">
          <mxGeometry x="840" y="380" width="140" height="80" as="geometry" />
        </mxCell>
        <mxCell id="SBfyBQDvpP1G_s4xRSZi-6" value="&lt;b&gt;knowledge_manager.py&lt;/b&gt;&lt;br&gt;(Gerenciador de Conhecimento)" style="rounded=1;whiteSpace=wrap;html=1;fillColor=#d5e8d4;strokeColor=#82b366;fontFamily=Helvetica;fontSize=12;" parent="1" vertex="1">
          <mxGeometry x="530" y="660" width="180" height="60" as="geometry" />
        </mxCell>
        <mxCell id="SBfyBQDvpP1G_s4xRSZi-7" value="&lt;b&gt;/prompts/persona.md&lt;/b&gt;" style="shape=document;whiteSpace=wrap;html=1;boundedLbl=1;fillColor=#e1d5e7;strokeColor=#9673a6;fontFamily=Helvetica;fontSize=12;" parent="1" vertex="1">
          <mxGeometry x="870" y="515" width="140" height="70" as="geometry" />
        </mxCell>
        <mxCell id="SBfyBQDvpP1G_s4xRSZi-8" value="&lt;b&gt;/knowledge/*.md&lt;/b&gt;&lt;br&gt;(Arquivos Separados)" style="shape=folder;whiteSpace=wrap;html=1;tabWidth=40;tabHeight=14;tabPosition=left;fillColor=#fff2cc;strokeColor=#d6b656;fontFamily=Helvetica;fontSize=12;" parent="1" vertex="1">
          <mxGeometry x="870" y="730" width="160" height="80" as="geometry" />
        </mxCell>
        <mxCell id="SBfyBQDvpP1G_s4xRSZi-9" value="6. Retorna Contexto&amp;nbsp;&lt;div&gt;Relevante&lt;/div&gt;" style="edgeStyle=orthogonalEdgeStyle;rounded=0;orthogonalLoop=1;jettySize=auto;html=1;startArrow=classic;startFill=1;endArrow=none;endFill=0;fontFamily=Helvetica;fontSize=10;" parent="1" source="SBfyBQDvpP1G_s4xRSZi-6" edge="1">
          <mxGeometry x="0.1667" relative="1" as="geometry">
            <Array as="points">
              <mxPoint x="690" y="540" />
            </Array>
            <mxPoint x="690" y="540" as="targetPoint" />
            <mxPoint as="offset" />
          </mxGeometry>
        </mxCell>
        <mxCell id="SBfyBQDvpP1G_s4xRSZi-10" value="8. Resposta LLM" style="edgeStyle=orthogonalEdgeStyle;rounded=0;orthogonalLoop=1;jettySize=auto;html=1;startArrow=classic;startFill=1;endArrow=none;endFill=0;fontFamily=Helvetica;fontSize=10;exitX=0.071;exitY=0.5;exitDx=0;exitDy=0;exitPerimeter=0;" parent="1" source="SBfyBQDvpP1G_s4xRSZi-5" target="SBfyBQDvpP1G_s4xRSZi-4" edge="1">
          <mxGeometry x="-0.2632" relative="1" as="geometry">
            <Array as="points">
              <mxPoint x="630" y="420" />
            </Array>
            <mxPoint as="offset" />
          </mxGeometry>
        </mxCell>
        <mxCell id="SBfyBQDvpP1G_s4xRSZi-11" value="9. Retorna Resposta" style="edgeStyle=orthogonalEdgeStyle;rounded=0;orthogonalLoop=1;jettySize=auto;html=1;startArrow=classic;startFill=1;endArrow=none;endFill=0;fontFamily=Helvetica;fontSize=10;exitX=0.25;exitY=0;exitDx=0;exitDy=0;" parent="1" source="SBfyBQDvpP1G_s4xRSZi-4" edge="1">
          <mxGeometry relative="1" as="geometry">
            <Array as="points">
              <mxPoint x="595" y="420" />
              <mxPoint x="450" y="420" />
              <mxPoint x="450" y="480" />
            </Array>
            <mxPoint x="450" y="480" as="targetPoint" />
          </mxGeometry>
        </mxCell>
        <mxCell id="SBfyBQDvpP1G_s4xRSZi-12" value="10. Resposta HTTP" style="edgeStyle=orthogonalEdgeStyle;rounded=0;orthogonalLoop=1;jettySize=auto;html=1;startArrow=classic;startFill=1;endArrow=none;endFill=0;fontFamily=Helvetica;fontSize=10;entryX=0.67;entryY=-0.037;entryDx=0;entryDy=0;entryPerimeter=0;" parent="1" source="SBfyBQDvpP1G_s4xRSZi-3" target="SBfyBQDvpP1G_s4xRSZi-2" edge="1">
          <mxGeometry relative="1" as="geometry">
            <Array as="points">
              <mxPoint x="430" y="420" />
              <mxPoint x="260" y="420" />
              <mxPoint x="260" y="478" />
            </Array>
          </mxGeometry>
        </mxCell>
        <mxCell id="SBfyBQDvpP1G_s4xRSZi-13" value="11. Exibe na UI" style="edgeStyle=orthogonalEdgeStyle;rounded=0;orthogonalLoop=1;jettySize=auto;html=1;startArrow=classic;startFill=1;endArrow=none;endFill=0;fontFamily=Helvetica;fontSize=10;" parent="1" source="SBfyBQDvpP1G_s4xRSZi-2" target="SBfyBQDvpP1G_s4xRSZi-1" edge="1">
          <mxGeometry relative="1" as="geometry">
            <Array as="points">
              <mxPoint x="120" y="420" />
              <mxPoint x="70" y="420" />
            </Array>
          </mxGeometry>
        </mxCell>
        <mxCell id="SBfyBQDvpP1G_s4xRSZi-14" value="ARQUITETURA ESCALÁVEL - SPRINT 2" style="text;html=1;strokeColor=none;fillColor=none;align=center;verticalAlign=middle;whiteSpace=wrap;rounded=0;fontFamily=Helvetica;fontSize=16;fontStyle=1" parent="1" vertex="1">
          <mxGeometry x="324" y="240" width="380" height="30" as="geometry" />
        </mxCell>
        <mxCell id="yblP_OQWIp9GfdXdZ7sO-1" value="1. Usuário interage com o bot" style="edgeStyle=orthogonalEdgeStyle;rounded=0;orthogonalLoop=1;jettySize=auto;html=1;startArrow=classic;startFill=1;endArrow=none;endFill=0;fontFamily=Helvetica;fontSize=10;entryX=0.406;entryY=0.994;entryDx=0;entryDy=0;entryPerimeter=0;exitX=0.5;exitY=1;exitDx=0;exitDy=0;" edge="1" parent="1" source="SBfyBQDvpP1G_s4xRSZi-2" target="SBfyBQDvpP1G_s4xRSZi-1">
          <mxGeometry relative="1" as="geometry">
            <Array as="points">
              <mxPoint x="240" y="580" />
              <mxPoint x="1" y="580" />
            </Array>
            <mxPoint x="260" y="640" as="sourcePoint" />
            <mxPoint x="30" y="610" as="targetPoint" />
          </mxGeometry>
        </mxCell>
        <mxCell id="yblP_OQWIp9GfdXdZ7sO-2" value="2. Frontend envia dados&lt;div&gt;para o backend&lt;/div&gt;" style="edgeStyle=orthogonalEdgeStyle;rounded=0;orthogonalLoop=1;jettySize=auto;html=1;startArrow=classic;startFill=1;endArrow=none;endFill=0;fontFamily=Helvetica;fontSize=10;entryX=0.81;entryY=1.031;entryDx=0;entryDy=0;entryPerimeter=0;exitX=0.5;exitY=1;exitDx=0;exitDy=0;" edge="1" parent="1" source="SBfyBQDvpP1G_s4xRSZi-3" target="SBfyBQDvpP1G_s4xRSZi-2">
          <mxGeometry relative="1" as="geometry">
            <Array as="points">
              <mxPoint x="430" y="580" />
              <mxPoint x="277" y="580" />
            </Array>
            <mxPoint x="469" y="570" as="sourcePoint" />
            <mxPoint x="230" y="599" as="targetPoint" />
          </mxGeometry>
        </mxCell>
        <mxCell id="yblP_OQWIp9GfdXdZ7sO-3" value="3. Controller aciona&lt;div&gt;o service&lt;/div&gt;" style="edgeStyle=orthogonalEdgeStyle;rounded=0;orthogonalLoop=1;jettySize=auto;html=1;startArrow=classic;startFill=1;endArrow=none;endFill=0;fontFamily=Helvetica;fontSize=10;exitX=0.142;exitY=1.024;exitDx=0;exitDy=0;exitPerimeter=0;entryX=0.63;entryY=0.997;entryDx=0;entryDy=0;entryPerimeter=0;" edge="1" parent="1" source="SBfyBQDvpP1G_s4xRSZi-4" target="SBfyBQDvpP1G_s4xRSZi-3">
          <mxGeometry x="-0.0012" relative="1" as="geometry">
            <Array as="points">
              <mxPoint x="580" y="580" />
              <mxPoint x="448" y="580" />
            </Array>
            <mxPoint x="581.4200000000001" y="545" as="sourcePoint" />
            <mxPoint x="448" y="542" as="targetPoint" />
            <mxPoint as="offset" />
          </mxGeometry>
        </mxCell>
        <mxCell id="yblP_OQWIp9GfdXdZ7sO-4" value="4. Service&lt;br&gt;&lt;div&gt;aciona gestor&amp;nbsp;&lt;/div&gt;&lt;div&gt;de conhecimento do bot&lt;/div&gt;" style="edgeStyle=orthogonalEdgeStyle;rounded=0;orthogonalLoop=1;jettySize=auto;html=1;startArrow=classic;startFill=1;endArrow=none;endFill=0;fontFamily=Helvetica;fontSize=10;exitX=0.112;exitY=0.012;exitDx=0;exitDy=0;exitPerimeter=0;" edge="1" parent="1" source="SBfyBQDvpP1G_s4xRSZi-6">
          <mxGeometry x="0.0551" relative="1" as="geometry">
            <Array as="points">
              <mxPoint x="550" y="610" />
              <mxPoint x="620" y="610" />
            </Array>
            <mxPoint x="620" y="610" as="sourcePoint" />
            <mxPoint x="620" y="540" as="targetPoint" />
            <mxPoint as="offset" />
          </mxGeometry>
        </mxCell>
        <mxCell id="yblP_OQWIp9GfdXdZ7sO-5" value="5.1. Acessa o&amp;nbsp;&lt;div&gt;prompt de&amp;nbsp;&lt;/div&gt;&lt;div&gt;conhecimento&lt;/div&gt;" style="edgeStyle=orthogonalEdgeStyle;rounded=0;orthogonalLoop=1;jettySize=auto;html=1;startArrow=classic;startFill=1;endArrow=none;endFill=0;fontFamily=Helvetica;fontSize=10;exitX=0;exitY=0;exitDx=0;exitDy=47;exitPerimeter=0;entryX=1;entryY=0.5;entryDx=0;entryDy=0;" edge="1" parent="1" source="SBfyBQDvpP1G_s4xRSZi-8" target="SBfyBQDvpP1G_s4xRSZi-6">
          <mxGeometry x="-0.2144" relative="1" as="geometry">
            <Array as="points">
              <mxPoint x="820" y="690" />
            </Array>
            <mxPoint x="740" y="740" as="sourcePoint" />
            <mxPoint x="740" y="620" as="targetPoint" />
            <mxPoint as="offset" />
          </mxGeometry>
        </mxCell>
        <mxCell id="yblP_OQWIp9GfdXdZ7sO-6" value="5.2. Acessa o prompt definido" style="edgeStyle=orthogonalEdgeStyle;rounded=0;orthogonalLoop=1;jettySize=auto;html=1;startArrow=classic;startFill=1;endArrow=none;endFill=0;fontFamily=Helvetica;fontSize=10;exitX=0;exitY=0.5;exitDx=0;exitDy=0;entryX=1;entryY=0.25;entryDx=0;entryDy=0;" edge="1" parent="1" source="SBfyBQDvpP1G_s4xRSZi-7" target="SBfyBQDvpP1G_s4xRSZi-6">
          <mxGeometry x="-0.4385" relative="1" as="geometry">
            <Array as="points">
              <mxPoint x="840" y="550" />
              <mxPoint x="840" y="675" />
            </Array>
            <mxPoint x="880" y="690" as="sourcePoint" />
            <mxPoint x="730" y="693" as="targetPoint" />
            <mxPoint as="offset" />
          </mxGeometry>
        </mxCell>
        <mxCell id="yblP_OQWIp9GfdXdZ7sO-7" value="7. Aciona LLM" style="edgeStyle=orthogonalEdgeStyle;rounded=0;orthogonalLoop=1;jettySize=auto;html=1;startArrow=classic;startFill=1;endArrow=none;endFill=0;fontFamily=Helvetica;fontSize=10;exitX=0.13;exitY=0.77;exitDx=0;exitDy=0;exitPerimeter=0;" edge="1" parent="1" source="SBfyBQDvpP1G_s4xRSZi-5">
          <mxGeometry x="-0.2632" relative="1" as="geometry">
            <Array as="points">
              <mxPoint x="678" y="442" />
            </Array>
            <mxPoint x="850" y="450" as="sourcePoint" />
            <mxPoint x="678" y="480" as="targetPoint" />
            <mxPoint as="offset" />
          </mxGeometry>
        </mxCell>
      </root>
    </mxGraphModel>
  </diagram>
</mxfile>
